<svg xmlns="http://www.w3.org/2000/svg" width="20" height="20" fill="#7C0AB1" viewBox="0 0 20 20"><path fill-rule="evenodd" d="M19 8.563v8.13A2.308 2.308 0 0 1 16.692 19H3.308A2.308 2.308 0 0 1 1 16.692V8.831c0-.718.334-1.395.904-1.831l6.499-4.982a2.308 2.308 0 0 1 2.707-.073l6.886 4.714A2.308 2.308 0 0 1 19 8.563ZM7.78 9.907h2.753l-3.346 4.054A.696.696 0 0 0 7 14.42a.659.659 0 0 0 .184.462.637.637 0 0 0 .451.196h4.268c.169-.001.33-.07.448-.19a.655.655 0 0 0 .003-.915.626.626 0 0 0-.45-.187H8.987l3.351-4.068a.677.677 0 0 0 .2-.456.648.648 0 0 0-.184-.459.626.626 0 0 0-.452-.187H7.78a.619.619 0 0 0-.45.187.64.64 0 0 0-.185.46c.001.17.068.334.187.455.12.12.28.19.448.19Z" clip-rule="evenodd"/></svg>